<svg id="Group_28646" data-name="Group 28646" xmlns="http://www.w3.org/2000/svg" xmlns:xlink="http://www.w3.org/1999/xlink" width="47.133" height="18" viewBox="0 0 47.133 18">
  <defs>
    <linearGradient id="linear-gradient" x1="-976.148" y1="143.523" x2="-976.148" y2="144.523" gradientUnits="objectBoundingBox">
      <stop offset="0" stop-color="#2682f0"/>
      <stop offset="1" stop-color="#67a6e3"/>
    </linearGradient>
    <linearGradient id="linear-gradient-2" x1="-853.734" y1="104.011" x2="-854.734" y2="104.011" xlink:href="#linear-gradient"/>
    <linearGradient id="linear-gradient-3" x1="-316.432" y1="29.221" x2="-315.432" y2="29.221" xlink:href="#linear-gradient"/>
    <linearGradient id="linear-gradient-4" x1="-785.759" y1="67.657" x2="-784.759" y2="67.657" xlink:href="#linear-gradient"/>
    <linearGradient id="linear-gradient-5" x1="-1098.901" y1="72.889" x2="-1097.901" y2="72.889" xlink:href="#linear-gradient"/>
    <linearGradient id="linear-gradient-6" x1="-410.943" y1="45.111" x2="-409.943" y2="45.111" xlink:href="#linear-gradient"/>
  </defs>
  <path id="Path_103" data-name="Path 103" d="M24.862,17.818a.566.566,0,0,1-.565.566H2.059a.566.566,0,0,1-.566-.566V.95A.565.565,0,0,1,2.059.384H24.3a.566.566,0,0,1,.565.566Z" transform="translate(-0.885 -0.384)"/>
  <path id="Path_104" data-name="Path 104" d="M15.98,5.744l.2-3.113,3.7,2.116Z" transform="translate(-9.478 -1.717)" fill="url(#linear-gradient)"/>
  <path id="Path_105" data-name="Path 105" d="M26.294,11.3l-4.459,1.293,4.353,2.944Z" transform="translate(-12.95 -6.855)" fill="url(#linear-gradient-2)"/>
  <path id="Path_106" data-name="Path 106" d="M.024,5.971,12.045,16.564l-.07,4.452L0,9.135Z" transform="translate(0 -3.697)" fill="url(#linear-gradient-3)"/>
  <path id="Path_107" data-name="Path 107" d="M29.494,29.3l4.74-1.852.047,4.335L29.43,33.757Z" transform="translate(-17.455 -16.438)" fill="url(#linear-gradient-4)"/>
  <path id="Path_108" data-name="Path 108" d="M53.446,20.01,56.8,18.628l.116,4.289-3.445,1.664Z" transform="translate(-31.698 -11.204)" fill="url(#linear-gradient-5)"/>
  <path id="Path_109" data-name="Path 109" d="M30.847,9.348l-.1,4.555,9.272,5.189,0-4.571Z" transform="translate(-18.233 -5.7)" fill="url(#linear-gradient-6)"/>
  <path id="Path_110" data-name="Path 110" d="M3.058,2.618l-3,.586L12.08,13.8l4.74-1.852-7.834-5.3,4.359-1.265,8.43,4.359L25.134,8.36,9.127,1.306l-2.391.539,3.69,2.109-3.9,1.008Z" transform="translate(-0.034 -0.931)" fill="#94ccf2"/>
  <g id="Group_16" data-name="Group 16" transform="translate(25.857 10.066)">
    <path id="Path_111" data-name="Path 111" d="M63.545,25.431h4.826v1.76H66.752v5.367H65.165V27.191H63.546v-1.76Z" transform="translate(-63.545 -25.306)" fill="#2682f0"/>
    <path id="Path_112" data-name="Path 112" d="M78.382,31.382h-1.8l-.249,1.178H74.708l1.931-7.129h1.732L80.3,32.56H78.639Zm-.329-1.541-.567-2.562-.561,2.562Z" transform="translate(-70.166 -25.306)" fill="#2682f0"/>
    <path id="Path_113" data-name="Path 113" d="M89.014,30.017l1.511-.131a2,2,0,0,0,.2.778.768.768,0,0,0,.7.433.641.641,0,0,0,.524-.221.8.8,0,0,0,.009-1.009,1.752,1.752,0,0,0-.813-.415,3.062,3.062,0,0,1-1.489-.865,2.082,2.082,0,0,1-.449-1.376,2.416,2.416,0,0,1,.229-1.038,1.752,1.752,0,0,1,.691-.769,2.425,2.425,0,0,1,1.263-.28,2.052,2.052,0,0,1,1.5.509,2.5,2.5,0,0,1,.614,1.617l-1.5.121a1.318,1.318,0,0,0-.251-.7.667.667,0,0,0-.527-.219.52.52,0,0,0-.416.163.589.589,0,0,0-.142.4.467.467,0,0,0,.116.306,1.121,1.121,0,0,0,.534.263,5.4,5.4,0,0,1,1.491.629,1.887,1.887,0,0,1,.654.789,2.63,2.63,0,0,1,.2,1.056,2.928,2.928,0,0,1-.273,1.263,2,2,0,0,1-.765.877,2.341,2.341,0,0,1-1.237.3,2.1,2.1,0,0,1-1.816-.7A3.314,3.314,0,0,1,89.014,30.017Z" transform="translate(-78.65 -25.123)" fill="#2682f0"/>
    <path id="Path_114" data-name="Path 114" d="M102.45,25.431h1.587v2.693l1.663-2.693h2.111l-1.874,2.69,1.958,4.437H105.94l-1.083-2.931-.822,1.192v1.739H102.45V25.431Z" transform="translate(-86.619 -25.306)" fill="#2682f0"/>
  </g>
  <path id="Path_115" data-name="Path 115" d="M65.073,2.232h1.472V4.693h1.609V2.232h1.479V9.266H68.154V6.421H66.545V9.266H65.073Z" transform="translate(-38.594 -1.48)"/>
  <path id="Path_116" data-name="Path 116" d="M80.916,8.106H79.244l-.23,1.161h-1.5L79.3,2.233h1.605L82.7,9.267H81.153Zm-.305-1.521-.526-2.529-.52,2.529Z" transform="translate(-45.971 -1.481)"/>
  <path id="Path_117" data-name="Path 117" d="M91.452,9.266V2.232H93.9a2.482,2.482,0,0,1,1.043.173,1.286,1.286,0,0,1,.583.641,2.689,2.689,0,0,1,.22,1.139,2.748,2.748,0,0,1-.168,1.009,1.788,1.788,0,0,1-.466.689,1.5,1.5,0,0,1-.517.278,1.252,1.252,0,0,1,.382.261,1.988,1.988,0,0,1,.236.369,3.034,3.034,0,0,1,.206.437l.713,2.038H94.475l-.787-2.15a1.737,1.737,0,0,0-.267-.542.488.488,0,0,0-.361-.163H92.93V9.266ZM92.93,5.082h.621a1.588,1.588,0,0,0,.39-.1.4.4,0,0,0,.239-.221.874.874,0,0,0,.093-.408.819.819,0,0,0-.146-.523.673.673,0,0,0-.549-.181H92.93v1.43Z" transform="translate(-54.239 -1.48)"/>
  <path id="Path_118" data-name="Path 118" d="M104.174,2.232h2.187a1.886,1.886,0,0,1,1.045.259,1.974,1.974,0,0,1,.657.743,3.872,3.872,0,0,1,.377,1.128,7.59,7.59,0,0,1,.118,1.363,6.874,6.874,0,0,1-.174,1.749,3.242,3.242,0,0,1-.483,1.041,1.56,1.56,0,0,1-.663.559,2.415,2.415,0,0,1-.877.192h-2.187V2.232Zm1.472,1.593V7.668h.361a1.094,1.094,0,0,0,.656-.151,1.016,1.016,0,0,0,.305-.528,4.771,4.771,0,0,0,.11-1.221,3.273,3.273,0,0,0-.246-1.53.878.878,0,0,0-.818-.413Z" transform="translate(-61.784 -1.48)"/>
</svg>
